<svg id="Layer_1" data-name="Layer 1" xmlns="http://www.w3.org/2000/svg" viewBox="0 0 87.8 81.6">
  <defs>
    <style>
      .cls-1 {
        fill: #333534;
      }
    </style>
  </defs>
  <title>Artboard 1</title>
  <g>
    <path class="cls-1" d="M25.3,65.8a1.2,1.2,0,0,0,.4,1,1.6,1.6,0,0,0,1.1.5H60.5A1.5,1.5,0,0,0,62,65.8a27.6,27.6,0,0,0-.4-5.3H86.3A1.5,1.5,0,0,0,87.8,59c0-.5.3-12.9-7.4-19.9a1.5,1.5,0,0,0-2-.1c-.1,0-9.1,6.8-17.5,0A1.4,1.4,0,0,0,59,39a23.1,23.1,0,0,0-4.8,6.6,1.4,1.4,0,0,0-1.5.2c-.4.3-9.2,6.8-17.5,0a1.5,1.5,0,0,0-1.4-.3,19.3,19.3,0,0,0-4.7-6.4,1.4,1.4,0,0,0-1.9-.1c-.1,0-9.1,6.8-17.5,0a1.5,1.5,0,0,0-2,0c-.3.3-7.7,6.9-7.9,20a1.2,1.2,0,0,0,.4,1,1.6,1.6,0,0,0,1.1.5H25.8A28.9,28.9,0,0,0,25.3,65.8ZM60.1,42.2c8,5.5,16.1,1.7,19-.1,4.6,4.9,5.4,12.2,5.6,15.3H61a22.8,22.8,0,0,0-4.5-9.6A23.5,23.5,0,0,1,60.1,42.2ZM34.4,49c7.9,5.5,16.1,1.7,19-.1,4.5,4.9,5.4,12.2,5.6,15.4H28.4A25.5,25.5,0,0,1,34.4,49ZM2.9,57.5a25.5,25.5,0,0,1,6-15.3c8,5.5,16.1,1.7,19-.1a17.9,17.9,0,0,1,3.5,5.7,27.1,27.1,0,0,0-4.9,9.6Z"/>
    <path class="cls-1" d="M3.8,23.3A14.3,14.3,0,0,0,18.2,37.7h0a14.6,14.6,0,0,0,10.2-4.2l1-1.2A14.5,14.5,0,0,0,43.6,44.6h.1a14.3,14.3,0,0,0,10.1-4.3A14,14,0,0,0,57.9,32a14.4,14.4,0,0,0,11.5,5.7h0A14.3,14.3,0,0,0,83.8,23.3,14.4,14.4,0,0,0,59.2,13.1a14.3,14.3,0,0,0-4.1,8.3,14.5,14.5,0,0,0-11.5-5.7,14.2,14.2,0,0,0-10.1,4.2l-1.1,1.2A14.4,14.4,0,0,0,8,13.1,14.6,14.6,0,0,0,3.8,23.3Zm57.6-8a10.9,10.9,0,0,1,8-3.3,11.4,11.4,0,0,1,0,22.7h0A11.4,11.4,0,0,1,58,23.3,11,11,0,0,1,61.4,15.3ZM35.6,22.1a11.1,11.1,0,0,1,8-3.3A11.4,11.4,0,0,1,55,30.1,11.3,11.3,0,0,1,43.7,41.5h-.1A11.4,11.4,0,0,1,32.3,30.1,11.5,11.5,0,0,1,35.6,22.1ZM18.2,12A11.4,11.4,0,0,1,29.5,23.3a11.2,11.2,0,0,1-3.3,8.1,11.4,11.4,0,0,1-8,3.3h0a11.4,11.4,0,0,1-8.1-19.4A11.2,11.2,0,0,1,18.2,12Z"/>
  </g>
</svg>
