<svg id="Layer_1" data-name="Layer 1" xmlns="http://www.w3.org/2000/svg" viewBox="0 0 929.6 354.2">
  <defs>
    <style>
      .cls-1 {
        fill: #0cb1af;
      }

      .cls-2 {
        fill: #fff;
      }
    </style>
  </defs>
  <title>Artboard 1</title>
  <path class="cls-1" d="M0,0Q44,177,88,354H209l19-67Q190,143.5,152,0Z"/>
  <path class="cls-1" d="M174,0H308q-33.5,121.1-67,242Q207.6,121,174,0Z"/>
  <path class="cls-1" d="M328,169c.5-.7,9-12.8,3-26-4.4-9.7-14.1-14.6-23-15-1.6-.1-13-.3-21,9-.8,1-7.8,9.3-6,21a26.3,26.3,0,0,0,18,21C310.1,182.4,321.8,177.6,328,169Z"/>
  <path class="cls-1" d="M433,354q15.5-80.5,31-161h30l33,161H498c-.7-11-1.3-22-2-33H465l-6,33Z"/>
  <path class="cls-2" d="M479,251l-9,45h19C485.7,281,482.3,266,479,251Z"/>
  <path class="cls-1" d="M608,354a65,65,0,0,1-35-7c-3.4-1.8-24.5-13.5-31-37l-.5-2c-5.1-24.8,10.2-50.6,13.5-56C652.8,88.4,666.9,67.6,695,26c4.3-6.4,13.8-19.7,29-23,19.1-4.2,40.4,6.6,51,27L916,258c3.1,4,16.5,22,13,45-3.9,25.5-26.9,46.7-57,51H827c.3-22.7.7-45.3,1-68l28-91-24,1c-5.3,19.7-10.7,39.3-16,59l-15-60H774l29,92c.7,22.3,1.3,44.7,2,67H778L748,195H719q-15.4,79.5-31,159H659c1.9-1.2,12.7-8.7,15-23,1.3-8.3-2.6-18-4-22-.4-1.2-.8-2.1-2-5-6.4-15.2-9.5-22.7-13-29-7.5-13.5-11-19-11-19a27.7,27.7,0,0,1-4-9c-.3-1.2-2.4-9.9,1-12,1-.6,1.8-.3,5,0h9a108.4,108.4,0,0,0,14-1V198l-36,1a32.4,32.4,0,0,0-15,8c-7.9,7.5-9.3,16.8-10,21-1.6,9.8.8,17.7,3,25,1.5,5.1,3.3,9,7,17a148.3,148.3,0,0,0,8,16c6.4,10.8,11.1,14.8,14,25,1.2,4.2,1.2,6.5,0,8s-6.3,1.5-14,1a118.2,118.2,0,0,0-17,0C608.7,331.3,608.3,342.7,608,354Z"/>
  <path class="cls-1" d="M725,296h17l-9-45C730.3,266,727.7,281,725,296Z"/>
  <path class="cls-1" d="M715,354l6-31h26l6,31Z"/>
  <path class="cls-2" d="M295,164l12-18,12,18h-7l-5-9-6,9Z"/>
  <path class="cls-1" d="M344,354V192h26l30,97c.3-32.3.7-64.7,1-97h21V354H400L365,249c.3,35,.7,70,1,105Z"/>
  <polygon class="cls-1" points="295 193 319 193 319 227.6 319 264.9 319 354 295 354 295 273.5 295 234 295 193"/>
</svg>
